# This file uses centimeters as units for non-parametric coordinates.

mtllib hypercubeMesh.mtl
g default
v -0.141918 0.000000 -0.889437
v -0.141918 0.000000 -0.605601
v 0.141918 -0.000000 -0.889437
v 0.141918 -0.000000 -0.605601
v -0.025863 -0.117932 -1.207837
v -0.025863 -0.117932 -0.884384
v -0.025863 0.205521 -1.207837
v -0.025863 0.205521 -0.884384
v 0.025863 -0.117932 -1.207837
v 0.025863 -0.117932 -0.884384
v 0.025863 0.205521 -1.207837
v 0.025863 0.205521 -0.884384
v -0.025863 -0.038981 -1.207837
v -0.025863 -0.076514 -0.884384
v 0.025863 -0.038981 -1.207837
v 0.025863 -0.076514 -0.884384
v -0.025863 -0.023513 -0.961712
v 0.025863 -0.023513 -0.961689
v -0.025863 -0.036213 -0.998748
v 0.025863 -0.036202 -0.998558
v 0.025863 -0.074930 -1.085616
v -0.025863 -0.074917 -1.084322
v -0.025863 0.050526 -1.207837
v -0.025863 0.076514 -0.884384
v 0.025863 0.050526 -1.207837
v 0.025863 0.076514 -0.884384
v -0.025863 0.021542 -0.961712
v 0.025863 0.021542 -0.961689
v 0.025863 0.040533 -0.998453
v -0.025863 0.040533 -0.998857
v -0.525000 -0.525000 -0.525001
v -0.525001 -0.525000 0.525000
v -0.525000 0.525000 -0.525001
v -0.525001 0.525000 0.525000
v 0.525001 0.525000 -0.525000
v 0.525000 0.525000 0.525001
v 0.525001 -0.525000 -0.525000
v 0.525000 -0.525000 0.525001
v -0.525000 -0.488250 -0.488250
v -0.525000 -0.488250 0.488250
v -0.525000 0.488250 0.488250
v -0.525000 0.488250 -0.488250
v -0.488250 0.525000 -0.488250
v -0.488250 0.525000 0.488250
v 0.488250 0.525000 0.488250
v 0.488250 0.525000 -0.488250
v 0.525000 0.488250 -0.488250
v 0.525000 0.488250 0.488250
v 0.525000 -0.488250 0.488250
v 0.525000 -0.488250 -0.488250
v 0.488250 -0.525000 -0.488250
v 0.488250 -0.525000 0.488250
v -0.488250 -0.525000 0.488250
v -0.488250 -0.525000 -0.488250
v 0.488250 -0.488250 0.525000
v -0.488250 -0.488250 0.525000
v 0.488250 0.488250 0.525000
v -0.488250 0.488250 0.525000
v 0.488250 -0.488250 -0.525000
v -0.488250 -0.488250 -0.525000
v -0.488250 0.488250 -0.525000
v 0.488250 0.488250 -0.525000
vt 0.353371 0.653563
vt 0.652195 0.653563
vt 0.652195 0.952387
vt 0.353371 0.952387
vt 0.026505 0.675693
vt 0.334656 0.675693
vt 0.334656 0.983844
vt 0.026505 0.983844
vt 0.026505 0.675693
vt 0.334656 0.675693
vt 0.334656 0.983844
vt 0.026505 0.983844
vt 0.144177 0.599961
vt 0.225703 0.599961
vt 0.225883 0.603757
vt 0.142944 0.603757
vt 0.260986 0.599961
vt 0.334656 0.599961
vt 0.334656 0.603757
vt 0.261008 0.603757
vt 0.026505 0.599961
vt 0.026505 0.603757
vt 0.225598 0.635248
vt 0.260986 0.635248
vt 0.261008 0.639044
vt 0.225983 0.639044
vt 0.334656 0.635248
vt 0.334656 0.639044
vt 0.026505 0.635248
vt 0.026505 0.639044
vt 1.064566 0.536061
vt -0.068793 0.536061
vt -0.029125 0.493248
vt 1.024899 0.493248
vt 1.064566 0.536061
vt -0.068793 0.536061
vt -0.029125 0.493248
vt 1.024899 0.493248
vt 1.064566 0.536061
vt -0.068793 0.536061
vt -0.029125 0.493248
vt 1.024899 0.493248
vt 1.064566 0.536061
vt -0.068793 0.536061
vt -0.029125 0.493248
vt 1.024899 0.493248
vt 1.064566 0.536061
vt -0.068793 0.536061
vt -0.029125 0.493248
vt 1.024899 0.493248
vt 1.064566 0.536061
vt -0.068793 0.536061
vt -0.029125 0.493248
vt 1.024899 0.493248
vt 1.064566 0.536061
vt -0.068793 0.536061
vt -0.029125 0.493248
vt 1.024899 0.493248
vt 1.064566 0.536061
vt -0.068793 0.536061
vt -0.029125 0.493248
vt 1.024899 0.493248
vt 1.064566 0.536061
vt -0.068793 0.536061
vt -0.029125 0.493248
vt 1.024899 0.493248
vt 1.064566 0.536061
vt -0.068793 0.536061
vt -0.029125 0.493248
vt 1.024899 0.493248
vt 1.064566 0.536061
vt -0.068793 0.536061
vt -0.029125 0.493248
vt 1.024899 0.493248
vt 1.064566 0.536061
vt -0.068793 0.536061
vt -0.029125 0.493248
vt 1.024899 0.493248
vt 1.064566 0.536061
vt -0.068793 0.536061
vt -0.029125 0.493248
vt 1.024899 0.493248
vt 1.064566 0.536061
vt -0.068793 0.536061
vt -0.029125 0.493248
vt 1.024899 0.493248
vt 1.064566 0.536061
vt -0.068793 0.536061
vt -0.029125 0.493248
vt 1.024899 0.493248
vt 1.064566 0.536061
vt -0.068793 0.536061
vt -0.029125 0.493248
vt 1.024899 0.493248
vt 1.064566 0.536061
vt -0.068793 0.536061
vt -0.029125 0.493248
vt 1.024899 0.493248
vt 1.064566 0.536061
vt -0.068793 0.536061
vt -0.029125 0.493248
vt 1.024899 0.493248
vt 1.064566 0.536061
vt -0.068793 0.536061
vt -0.029125 0.493248
vt 1.024899 0.493248
vt 1.064566 0.536061
vt -0.068793 0.536061
vt -0.029125 0.493248
vt 1.024899 0.493248
vt 1.064566 0.536061
vt -0.068793 0.536061
vt -0.029125 0.493248
vt 1.024899 0.493248
vt 1.064566 0.536061
vt -0.068793 0.536061
vt -0.029125 0.493248
vt 1.024899 0.493248
vt 1.064566 0.536061
vt -0.068793 0.536061
vt -0.029125 0.493248
vt 1.024899 0.493248
vt 1.064566 0.536061
vt -0.068793 0.536061
vt -0.029125 0.493248
vt 1.024899 0.493248
vn 0.000000 1.000000 0.000000
vn 0.000000 1.000000 0.000000
vn 0.000000 1.000000 0.000000
vn 0.000000 1.000000 0.000000
vn -1.000000 0.000000 0.000000
vn -1.000000 0.000000 0.000000
vn -1.000000 0.000000 0.000000
vn -1.000000 0.000000 0.000000
vn -1.000000 0.000000 0.000000
vn -1.000000 0.000000 0.000000
vn -1.000000 0.000000 0.000000
vn -1.000000 0.000000 0.000000
vn -0.004356 0.912411 -0.409253
vn -0.004356 0.912411 -0.409253
vn -0.004356 0.912411 -0.409253
vn -0.004356 0.912411 -0.409253
vn -0.000126 0.824813 0.565406
vn -0.000126 0.824813 0.565406
vn -0.000126 0.824813 0.565406
vn -0.000126 0.824813 0.565406
vn 0.000567 0.945750 -0.324895
vn 0.000567 0.945750 -0.324895
vn 0.000567 0.945750 -0.324895
vn 0.000567 0.945750 -0.324895
vn 0.003624 0.959772 0.280759
vn 0.003624 0.959772 0.280759
vn 0.003624 0.959772 0.280759
vn 0.003624 0.959772 0.280759
vn -0.001888 0.889418 0.457091
vn -0.001888 0.889418 0.457091
vn -0.001888 0.889418 0.457091
vn -0.001888 0.889418 0.457091
vn 0.000131 0.815001 -0.579460
vn 0.000131 0.815001 -0.579460
vn 0.000131 0.815001 -0.579460
vn 0.000131 0.815001 -0.579460
vn -0.000186 0.998861 0.047715
vn -0.000186 0.998861 0.047715
vn -0.000186 0.998861 0.047715
vn -0.000186 0.998861 0.047715
vn -1.000000 0.000011 -0.000000
vn -1.000000 0.000011 -0.000000
vn -1.000000 0.000011 -0.000000
vn -1.000000 0.000011 -0.000000
vn -1.000000 0.000000 -0.000024
vn -1.000000 0.000000 -0.000024
vn -1.000000 0.000000 -0.000024
vn -1.000000 0.000000 -0.000024
vn -1.000000 -0.000011 -0.000000
vn -1.000000 -0.000011 -0.000000
vn -1.000000 -0.000011 -0.000000
vn -1.000000 -0.000011 -0.000000
vn -1.000000 0.000000 0.000000
vn -1.000000 0.000000 0.000000
vn -1.000000 0.000000 0.000000
vn -1.000000 0.000000 0.000000
vn 0.000000 1.000000 -0.000000
vn 0.000000 1.000000 0.000000
vn 0.000000 1.000000 0.000000
vn 0.000000 1.000000 -0.000000
vn 0.000000 1.000000 0.000000
vn 0.000000 1.000000 0.000000
vn 0.000000 1.000000 0.000000
vn 0.000000 1.000000 0.000000
vn 0.000000 1.000000 -0.000000
vn 0.000000 1.000000 -0.000000
vn 1.000000 -0.000006 0.000012
vn 1.000000 -0.000006 0.000000
vn 1.000000 -0.000006 0.000000
vn 1.000000 -0.000006 0.000012
vn 1.000000 0.000005 0.000000
vn 1.000000 0.000005 0.000000
vn 1.000000 0.000005 0.000012
vn 1.000000 0.000005 0.000012
vn 0.000000 -1.000000 0.000000
vn 0.000000 -1.000000 -0.000000
vn 0.000000 -1.000000 -0.000000
vn 0.000000 -1.000000 0.000000
vn 0.000000 -1.000000 -0.000000
vn 0.000000 -1.000000 -0.000000
vn 0.000000 -1.000000 0.000000
vn 0.000000 -1.000000 0.000000
vn -0.000000 0.000006 1.000000
vn -0.000013 0.000006 1.000000
vn -0.000013 0.000006 1.000000
vn -0.000000 0.000006 1.000000
vn -0.000013 -0.000006 1.000000
vn -0.000013 -0.000006 1.000000
vn -0.000000 -0.000006 1.000000
vn -0.000000 -0.000006 1.000000
vn 0.000000 0.000006 -1.000000
vn 0.000013 0.000006 -1.000000
vn 0.000013 0.000006 -1.000000
vn 0.000000 0.000006 -1.000000
vn 0.000013 -0.000006 -1.000000
vn 0.000013 -0.000006 -1.000000
vn 0.000000 -0.000006 -1.000000
vn 0.000000 -0.000006 -1.000000
s off
g hypercubeMesh
usemtl initialShadingGroup
f 1/1/1 2/2/2 4/3/3 3/4/4
f 5/5/5 6/6/6 8/7/7 7/8/8
f 9/9/9 10/10/10 12/11/11 11/12/12
f 22/13/13 19/14/14 20/15/15 21/16/16
f 17/17/17 14/18/18 16/19/19 18/20/20
f 19/14/21 17/17/22 18/20/23 20/15/24
f 13/21/25 22/13/26 21/16/27 15/22/28
f 30/23/29 27/24/30 28/25/31 29/26/32
f 27/24/33 24/27/34 26/28/35 28/25/36
f 23/29/37 30/23/38 29/26/39 25/30/40
f 31/31/41 32/32/42 40/33/43 39/34/44
f 32/35/45 34/36/46 41/37/47 40/38/48
f 34/39/49 33/40/50 42/41/51 41/42/52
f 33/43/53 31/44/54 39/45/55 42/46/56
s 1
f 33/47/57 34/48/58 44/49/59 43/50/60
f 34/51/61 36/52/62 45/53/63 44/54/64
f 36/55/62 35/56/65 46/57/66 45/58/63
f 35/59/65 33/60/57 43/61/60 46/62/66
s 3
f 35/63/67 36/64/68 48/65/69 47/66/70
f 36/67/68 38/68/71 49/69/72 48/70/69
f 38/71/71 37/72/73 50/73/74 49/74/72
f 37/75/73 35/76/67 47/77/70 50/78/74
s 4
f 37/79/75 38/80/76 52/81/77 51/82/78
f 38/83/76 32/84/79 53/85/80 52/86/77
f 32/87/79 31/88/81 54/89/82 53/90/80
f 31/91/81 37/92/75 51/93/78 54/94/82
s 5
f 32/95/83 38/96/84 55/97/85 56/98/86
f 38/99/84 36/100/87 57/101/88 55/102/85
f 36/103/87 34/104/89 58/105/90 57/106/88
f 34/107/89 32/108/83 56/109/86 58/110/90
s 6
f 37/111/91 31/112/92 60/113/93 59/114/94
f 31/115/92 33/116/95 61/117/96 60/118/93
f 33/119/95 35/120/97 62/121/98 61/122/96
f 35/123/97 37/124/91 59/125/94 62/126/98
