# This file uses centimeters as units for non-parametric coordinates.

mtllib hypercubeMesh_plain.mtl
g default
v -0.525000 -0.525000 -0.525001
v -0.525001 -0.525000 0.525000
v -0.525000 0.525000 -0.525001
v -0.525001 0.525000 0.525000
v 0.525001 0.525000 -0.525000
v 0.525000 0.525000 0.525001
v 0.525001 -0.525000 -0.525000
v 0.525000 -0.525000 0.525001
v -0.525000 -0.488250 -0.488250
v -0.525000 -0.488250 0.488250
v -0.525000 0.488250 0.488250
v -0.525000 0.488250 -0.488250
v -0.488250 0.525000 -0.488250
v -0.488250 0.525000 0.488250
v 0.488250 0.525000 0.488250
v 0.488250 0.525000 -0.488250
v 0.525000 0.488250 -0.488250
v 0.525000 0.488250 0.488250
v 0.525000 -0.488250 0.488250
v 0.525000 -0.488250 -0.488250
v 0.488250 -0.525000 -0.488250
v 0.488250 -0.525000 0.488250
v -0.488250 -0.525000 0.488250
v -0.488250 -0.525000 -0.488250
v 0.488250 -0.488250 0.525000
v -0.488250 -0.488250 0.525000
v 0.488250 0.488250 0.525000
v -0.488250 0.488250 0.525000
v 0.488250 -0.488250 -0.525000
v -0.488250 -0.488250 -0.525000
v -0.488250 0.488250 -0.525000
v 0.488250 0.488250 -0.525000
vt 1.064566 0.536061
vt -0.068793 0.536061
vt -0.029125 0.493248
vt 1.024899 0.493248
vt 1.064566 0.536061
vt -0.068793 0.536061
vt -0.029125 0.493248
vt 1.024899 0.493248
vt 1.064566 0.536061
vt -0.068793 0.536061
vt -0.029125 0.493248
vt 1.024899 0.493248
vt 1.064566 0.536061
vt -0.068793 0.536061
vt -0.029125 0.493248
vt 1.024899 0.493248
vt 1.064566 0.536061
vt -0.068793 0.536061
vt -0.029125 0.493248
vt 1.024899 0.493248
vt 1.064566 0.536061
vt -0.068793 0.536061
vt -0.029125 0.493248
vt 1.024899 0.493248
vt 1.064566 0.536061
vt -0.068793 0.536061
vt -0.029125 0.493248
vt 1.024899 0.493248
vt 1.064566 0.536061
vt -0.068793 0.536061
vt -0.029125 0.493248
vt 1.024899 0.493248
vt 1.064566 0.536061
vt -0.068793 0.536061
vt -0.029125 0.493248
vt 1.024899 0.493248
vt 1.064566 0.536061
vt -0.068793 0.536061
vt -0.029125 0.493248
vt 1.024899 0.493248
vt 1.064566 0.536061
vt -0.068793 0.536061
vt -0.029125 0.493248
vt 1.024899 0.493248
vt 1.064566 0.536061
vt -0.068793 0.536061
vt -0.029125 0.493248
vt 1.024899 0.493248
vt 1.064566 0.536061
vt -0.068793 0.536061
vt -0.029125 0.493248
vt 1.024899 0.493248
vt 1.064566 0.536061
vt -0.068793 0.536061
vt -0.029125 0.493248
vt 1.024899 0.493248
vt 1.064566 0.536061
vt -0.068793 0.536061
vt -0.029125 0.493248
vt 1.024899 0.493248
vt 1.064566 0.536061
vt -0.068793 0.536061
vt -0.029125 0.493248
vt 1.024899 0.493248
vt 1.064566 0.536061
vt -0.068793 0.536061
vt -0.029125 0.493248
vt 1.024899 0.493248
vt 1.064566 0.536061
vt -0.068793 0.536061
vt -0.029125 0.493248
vt 1.024899 0.493248
vt 1.064566 0.536061
vt -0.068793 0.536061
vt -0.029125 0.493248
vt 1.024899 0.493248
vt 1.064566 0.536061
vt -0.068793 0.536061
vt -0.029125 0.493248
vt 1.024899 0.493248
vt 1.064566 0.536061
vt -0.068793 0.536061
vt -0.029125 0.493248
vt 1.024899 0.493248
vt 1.064566 0.536061
vt -0.068793 0.536061
vt -0.029125 0.493248
vt 1.024899 0.493248
vt 1.064566 0.536061
vt -0.068793 0.536061
vt -0.029125 0.493248
vt 1.024899 0.493248
vt 1.064566 0.536061
vt -0.068793 0.536061
vt -0.029125 0.493248
vt 1.024899 0.493248
vn -1.000000 0.000011 -0.000000
vn -1.000000 0.000011 -0.000000
vn -1.000000 0.000011 -0.000000
vn -1.000000 0.000011 -0.000000
vn -1.000000 0.000000 -0.000024
vn -1.000000 0.000000 -0.000024
vn -1.000000 0.000000 -0.000024
vn -1.000000 0.000000 -0.000024
vn -1.000000 -0.000011 -0.000000
vn -1.000000 -0.000011 -0.000000
vn -1.000000 -0.000011 -0.000000
vn -1.000000 -0.000011 -0.000000
vn -1.000000 0.000000 0.000000
vn -1.000000 0.000000 0.000000
vn -1.000000 0.000000 0.000000
vn -1.000000 0.000000 0.000000
vn 0.000000 1.000000 -0.000000
vn 0.000000 1.000000 0.000000
vn 0.000000 1.000000 0.000000
vn 0.000000 1.000000 -0.000000
vn 0.000000 1.000000 0.000000
vn 0.000000 1.000000 0.000000
vn 0.000000 1.000000 0.000000
vn 0.000000 1.000000 0.000000
vn 0.000000 1.000000 -0.000000
vn 0.000000 1.000000 -0.000000
vn 1.000000 -0.000006 0.000012
vn 1.000000 -0.000006 0.000000
vn 1.000000 -0.000006 0.000000
vn 1.000000 -0.000006 0.000012
vn 1.000000 0.000005 0.000000
vn 1.000000 0.000005 0.000000
vn 1.000000 0.000005 0.000012
vn 1.000000 0.000005 0.000012
vn 0.000000 -1.000000 0.000000
vn 0.000000 -1.000000 -0.000000
vn 0.000000 -1.000000 -0.000000
vn 0.000000 -1.000000 0.000000
vn 0.000000 -1.000000 -0.000000
vn 0.000000 -1.000000 -0.000000
vn 0.000000 -1.000000 0.000000
vn 0.000000 -1.000000 0.000000
vn -0.000000 0.000006 1.000000
vn -0.000013 0.000006 1.000000
vn -0.000013 0.000006 1.000000
vn -0.000000 0.000006 1.000000
vn -0.000013 -0.000006 1.000000
vn -0.000013 -0.000006 1.000000
vn -0.000000 -0.000006 1.000000
vn -0.000000 -0.000006 1.000000
vn 0.000000 0.000006 -1.000000
vn 0.000013 0.000006 -1.000000
vn 0.000013 0.000006 -1.000000
vn 0.000000 0.000006 -1.000000
vn 0.000013 -0.000006 -1.000000
vn 0.000013 -0.000006 -1.000000
vn 0.000000 -0.000006 -1.000000
vn 0.000000 -0.000006 -1.000000
s off
g hypercubeMesh_plain
usemtl initialShadingGroup
f 1/1/1 2/2/2 10/3/3 9/4/4
f 2/5/5 4/6/6 11/7/7 10/8/8
f 4/9/9 3/10/10 12/11/11 11/12/12
f 3/13/13 1/14/14 9/15/15 12/16/16
s 1
f 3/17/17 4/18/18 14/19/19 13/20/20
f 4/21/21 6/22/22 15/23/23 14/24/24
f 6/25/22 5/26/25 16/27/26 15/28/23
f 5/29/25 3/30/17 13/31/20 16/32/26
s 3
f 5/33/27 6/34/28 18/35/29 17/36/30
f 6/37/28 8/38/31 19/39/32 18/40/29
f 8/41/31 7/42/33 20/43/34 19/44/32
f 7/45/33 5/46/27 17/47/30 20/48/34
s 4
f 7/49/35 8/50/36 22/51/37 21/52/38
f 8/53/36 2/54/39 23/55/40 22/56/37
f 2/57/39 1/58/41 24/59/42 23/60/40
f 1/61/41 7/62/35 21/63/38 24/64/42
s 5
f 2/65/43 8/66/44 25/67/45 26/68/46
f 8/69/44 6/70/47 27/71/48 25/72/45
f 6/73/47 4/74/49 28/75/50 27/76/48
f 4/77/49 2/78/43 26/79/46 28/80/50
s 6
f 7/81/51 1/82/52 30/83/53 29/84/54
f 1/85/52 3/86/55 31/87/56 30/88/53
f 3/89/55 5/90/57 32/91/58 31/92/56
f 5/93/57 7/94/51 29/95/54 32/96/58
